<svg xmlns="http://www.w3.org/2000/svg" viewBox="0 0 256 256">
	<defs>
		<style>
			.cls-1 {
				fill: #181818;
			}

			.cls-2 {
				fill: #e6e6e6;
			}
		</style>
	</defs>
	<path class="cls-1"
		d="M54.27,0H201.73A54.27,54.27,0,0,1,256,54.27V201.73A54.27,54.27,0,0,1,201.73,256H54.27A54.27,54.27,0,0,1,0,201.73V54.27A54.27,54.27,0,0,1,54.27,0Z"
		transform="translate(0 0)" />
	<path class="cls-2"
		d="M188,69.12l15.5-15.5L218.58,68.7l-15.5,15.5A96,96,0,0,1,186.93,220c-40.85,31.71-100.16,25.08-133-14.87A96,96,0,0,1,188,69.12ZM128.07,218.79a74.67,74.67,0,1,0-74.66-74.67A74.67,74.67,0,0,0,128.07,218.79Zm-10.66-128h21.33v64H117.41Zm-32-74.67h85.33V37.46H85.41Z"
		transform="translate(0 0)" />
</svg>
